<svg xmlns="http://www.w3.org/2000/svg" width="517" height="517" viewBox="0 0 517 517">
  <g id="Group_2037" data-name="Group 2037" transform="translate(0 -0.141)">
    <rect id="Rectangle_347" data-name="Rectangle 347" width="517" height="517" transform="translate(0 0.14)" fill="none"/>
    <g id="free-delivery_1_traced_" data-name="free-delivery 1 (traced)" transform="translate(17.227 120.589)">
      <path id="Path_445" data-name="Path 445" d="M5.551,7.65c-1.414,1.316-2.176,3.341-2.176,6.074s.761,4.758,2.176,6.074c2.176,2.025,3.59,2.025,125.642,2.025,135.977,0,129.667-.3,132.059,6.074.87,2.43,1.2,27.334,1.2,87.671V200H29.482V169.629c0-29.055-.109-30.472-2.176-32.4-1.414-1.315-3.59-2.024-6.527-2.024s-5.113.708-6.527,2.024c-2.067,1.924-2.176,3.341-2.176,54.669s.109,52.745,2.176,54.667,3.59,2.026,39.161,2.026c34.375,0,37.094.1,37.638,1.721a45.778,45.778,0,0,0,23.388,26.828c6.744,3.24,7.4,3.341,19.472,3.341s12.727-.1,19.363-3.341a44.19,44.19,0,0,0,20.016-18.628c3.481-6.177,3.59-6.784,3.59-18.021,0-11.136-.109-11.844-3.59-18.021L169.81,216.2H289.468l-3.154,6.276c-1.85,3.544-3.481,7.188-3.808,8.1-.543,1.721-3.481,1.823-41.99,1.823-39.922,0-41.445.1-43.512,2.024-1.413,1.317-2.174,3.341-2.174,6.075s.761,4.758,2.174,6.073c2.068,1.924,3.59,2.026,43.512,2.026,38.509,0,41.447.1,41.99,1.721a45.783,45.783,0,0,0,23.388,26.828c6.746,3.24,7.4,3.341,19.473,3.341s12.727-.1,19.364-3.341a44.193,44.193,0,0,0,20.016-18.628c3.481-6.177,3.59-6.784,3.59-18.021,0-11.136-.109-11.844-3.59-18.021l-3.481-6.276h59.829v16.2h-15.23c-13.815,0-15.446.2-17.4,2.024-2.936,2.734-2.936,9.416,0,12.148,2.068,1.924,3.59,2.026,23.933,2.026,20.45,0,21.865-.1,23.931-2.026,2.177-2.024,2.286-2.935,1.959-58.514l-.325-56.391-3.156-6.073c-4.133-7.8-12.4-15.49-20.777-19.336-6.31-2.836-7.071-2.937-25.78-3.24L369.1,102.61l-.436-17.817c-.325-17.413-.434-18.121-3.481-23.993-4.133-7.8-12.4-15.489-20.777-19.337l-6.526-2.936-27.957-.3-28.066-.3V30.833c0-4.049-.761-8.605-1.74-10.833-2.177-4.96-7.614-10.124-12.945-12.452-4.133-1.822-10.009-1.923-131.843-1.923C9.14,5.625,7.726,5.625,5.551,7.65Zm329.607,49.2a36.512,36.512,0,0,1,8.375,5.568c5.874,5.872,7.18,9.921,7.723,25.917l.545,14.477H327.65c-22.626,0-24.149.1-26.216,2.024-2.611,2.43-2.936,8.81-.652,11.745,1.522,1.823,3.7,1.924,50.365,2.43,46.778.505,48.952.607,53.63,2.633a28.792,28.792,0,0,1,13.815,13.06c1.631,3.542,1.959,8,2.284,34.623L421.312,200H281.854V54.016l24.258.4C327.868,54.725,330.7,55.029,335.158,56.851ZM94.86,222.475c-1.849,3.544-3.481,7.188-3.808,8.1-.544,1.721-2.937,1.823-31.111,1.823H29.482V216.2H98.014Zm48.625-3.643c9.246,3.542,15.446,12.148,15.446,21.664,0,13.06-10.986,23.284-25.019,23.284-21.974,0-33.287-24.5-18.166-39.381C122.708,217.616,134.347,215.288,143.485,218.832Zm191.454,0c9.246,3.542,15.446,12.148,15.446,21.664,0,20.552-26.326,30.979-42.315,16.906-16.21-14.375-5.331-40.089,17.078-40.19A31.622,31.622,0,0,1,334.939,218.832Z" transform="translate(30.459 -5.625)" fill="#151515"/>
      <path id="Path_446" data-name="Path 446" d="M3.99,9.24c-1.375,1.375-2.115,3.489-2.115,6.344s.74,4.969,2.115,6.344C6,23.936,7.479,24.042,61.084,24.042s55.086-.106,57.095-2.115c1.375-1.375,2.115-3.489,2.115-6.344s-.74-4.969-2.115-6.344c-2.009-2.009-3.489-2.115-57.095-2.115S6,7.231,3.99,9.24Z" transform="translate(-1.875 26.709)" fill="#151515"/>
      <path id="Path_447" data-name="Path 447" d="M4.74,10.74c-1.375,1.375-2.115,3.489-2.115,6.344s.74,4.969,2.115,6.344c1.9,1.9,3.489,2.115,19.032,2.115S40.9,25.33,42.8,23.427c1.375-1.375,2.115-3.489,2.115-6.344s-.74-4.969-2.115-6.344c-1.9-1.9-3.489-2.115-19.032-2.115S6.643,8.836,4.74,10.74Z" transform="translate(14.292 55.987)" fill="#151515"/>
      <path id="Path_448" data-name="Path 448" d="M8.094,12.214,4.922,15.28V68.567l3.172,3.174c2.855,2.747,3.806,3.171,7.19,2.644,6.344-1.058,7.613-3.6,7.613-15.121V49.325H35.055c11.63,0,12.371-.106,14.8-2.644a9.337,9.337,0,0,0,.634-12.264c-1.9-2.326-2.855-2.538-14.8-2.856C23.953,31.246,22.9,31.034,22.9,29.131s.846-2.009,13-2.009c10.044,0,13.534-.423,15.331-1.692l2.326-1.586v22.2c0,12.16.317,22.944.634,23.9.846,2.007,5.815,4.757,8.881,4.757,1.269,0,3.7-1.374,5.392-3.065,2.96-2.962,3.066-3.6,3.066-12.16,0-4.969.423-9.092.952-9.092,1.692,0,4.969,3.6,12.159,13.427,6.027,8.246,7.718,9.832,10.784,10.468a8.794,8.794,0,0,0,10.045-5.711c1.48-3.911.74-6.131-4.864-13.637a83.175,83.175,0,0,1-4.758-7.085,27.918,27.918,0,0,1,3.595-4.017c8.881-8.882,7.19-25.164-3.383-31.72-3.489-2.22-5.392-2.432-19.349-2.749-12.688-.317-16.071-.106-18.82,1.269-1.8.952-3.278,2.22-3.278,2.855s-.952.106-2.009-1.269C50.6,9.782,50.069,9.676,30.932,9.359L11.265,9.042ZM86.863,29.237c0,1.269-1.692,1.692-7.613,1.9-7.19.316-7.718.21-7.718-1.9s.529-2.22,7.718-1.9C85.171,27.545,86.863,27.968,86.863,29.237Z" transform="translate(66.162 63.789)" fill="#151515"/>
      <path id="Path_449" data-name="Path 449" d="M14.367,10.316C9.715,12.853,9.609,13.488,9.609,41.4c0,14.7.317,27.491.634,28.443C11.83,73.754,16.165,74.6,35.513,74.6H54.228l3.065-3.065c1.692-1.692,3.068-4.123,3.068-5.393,0-3.065-2.75-8.034-4.759-8.88-.95-.318-7.716-.636-14.907-.636H27.585v-7.4H39.108c6.343,0,12.37-.316,13.322-.634,2.01-.846,4.759-5.815,4.759-8.883,0-1.268-1.376-3.7-3.068-5.391-3.065-3.068-3.277-3.068-14.8-3.068-11,0-11.736-.1-11.736-2.114s.74-2.115,12.582-2.115c6.977,0,13.427-.317,14.379-.634,2.007-.846,4.757-5.815,4.757-8.881,0-1.269-1.374-3.7-3.065-5.392L53.17,9.047h-18.4C23.565,9.047,15.636,9.576,14.367,10.316Z" transform="translate(170.089 63.886)" fill="#151515"/>
      <path id="Path_450" data-name="Path 450" d="M14.7,11.267l-2.75,2.115V41.294c0,25.8.106,27.913,2.01,30.238,2.007,2.432,2.432,2.537,21.992,2.856,19.03.316,20.088.212,22.838-1.9,3.805-3.065,4.017-10.15.422-13.534-2.219-2.113-3.593-2.326-15.859-2.326H29.928v-7.4H41.876c11.208,0,12.158-.212,14.273-2.434,3.489-3.7,3.171-10.466-.424-13.322-2.432-1.9-4.333-2.22-14.273-2.22-10.784,0-11.524-.106-11.524-2.115s.74-2.115,13.006-2.115,13.216-.106,15.329-2.432c3.489-3.7,3.174-10.467-.422-13.322-2.644-2.009-4.229-2.22-21.57-2.22S17.346,9.258,14.7,11.267Z" transform="translate(222.183 63.878)" fill="#151515"/>
      <path id="Path_451" data-name="Path 451" d="M5.49,12.238c-1.375,1.376-2.115,3.489-2.115,6.345,0,6.767,2.538,8.458,12.688,8.458S28.75,25.35,28.75,18.583s-2.538-8.458-12.688-8.458C8.979,10.125,7.287,10.443,5.49,12.238Z" transform="translate(30.459 86.793)" fill="#151515"/>
    </g>
  </g>
</svg>
