<svg xmlns="http://www.w3.org/2000/svg" width="517" height="517" viewBox="0 0 517 517">
  <g id="Group_2038" data-name="Group 2038" transform="translate(0 -0.345)">
    <rect id="Rectangle_348" data-name="Rectangle 348" width="517" height="517" transform="translate(0 0.345)" fill="none"/>
    <path id="_20-minutes-black-icon" data-name="20-minutes-black-icon" d="M207.533,0c114.608,0,207.53,92.92,207.53,207.529,0,69.57-34.237,131.147-92.816,172.97-27.981,20.212-69.673,34.564-114.714,34.564C92.92,415.062,0,322.141,0,207.529S92.92,0,207.533,0ZM129.98,225.238V205.4l40.049-52.65a28.91,28.91,0,0,0,4.219-7.259,18.8,18.8,0,0,0,1.479-6.93V138.4a9.082,9.082,0,0,0-3.041-7.314c-2.027-1.7-4.931-2.548-8.656-2.548a11.6,11.6,0,0,0-8.793,3.561c-2.274,2.383-3.671,5.78-4.137,10.163v.082H128.556v-.082q1.11-16.642,10.629-25.778,9.492-9.122,24.682-9.149,16.437,0,25.476,7.944c6.027,5.315,9.04,12.793,9.04,22.49v.082a46.482,46.482,0,0,1-2.794,15.751,48.955,48.955,0,0,1-7.725,14.162l-28.736,36.3h39.885v21.175H129.98Zm121.6,1.205q-17.422,0-26.16-8.958-8.753-8.917-8.739-24.189V140.236q0-15.451,8.876-24.3,8.834-8.834,26.023-8.848,17.258,0,26.078,8.793t8.848,24.352V193.3q0,15.492-8.848,24.326-8.793,8.834-26.078,8.821Zm0-21.175c4.6,0,7.917-1.589,9.917-4.712s3.013-7.423,3.013-12.875v-41.8c0-5.534-1.014-9.834-3.013-12.929s-5.315-4.657-9.917-4.657c-4.547,0-7.834,1.561-9.861,4.657s-3.041,7.4-3.041,12.929v41.8c0,5.452.986,9.752,2.986,12.875C243.69,203.679,246.978,205.268,251.58,205.268Zm27.756,92.546-1.7-16.346V252.942h14.743v64.816H276.061L255.04,283.038l-4.832-10.106,2.127,16.825v28H237.593V252.942h15.179l22.155,35.593ZM112.3,63a9.507,9.507,0,0,1-.92-2.213,175.784,175.784,0,0,1,15.746-9.213,9.476,9.476,0,0,1,1.551,2.015l8.5,14.718A9.444,9.444,0,0,1,120.8,77.715L112.3,63Zm4.47,254.759,7.5-64.816h21.9l7.853,33.237,2.967,15.178,2.352-15.178,6.981-33.237h21.2l8.024,64.816H179.928l-2.705-34.11-.959-18.669-4.01,19.193-8.725,33.935H149.135l-9.42-33.935-4.276-19.193L134.3,283.649l-2.53,34.11Zm89.594,0V252.942h16.4v64.816h-16.4ZM207.533,32.1q4.558,0,9.063.233a9.377,9.377,0,0,1,.373,2.642V51.965a9.448,9.448,0,0,1-18.9,0l0-16.995a9.526,9.526,0,0,1,.373-2.642q4.538-.23,9.083-.234Zm80.384,19.466a173.982,173.982,0,0,1,15.777,9.229,9.55,9.55,0,0,1-.94,2.245l-8.5,14.718a9.461,9.461,0,0,1-16.373-9.483l8.5-14.719a9.546,9.546,0,0,1,1.539-1.991Zm67.433,61.453a175.04,175.04,0,0,1,9.154,16.131,9.211,9.211,0,0,1-1.475,1.055l-14.719,8.5a9.46,9.46,0,1,1-9.483-16.372l14.719-8.5A9.625,9.625,0,0,1,355.35,113.014Zm27.431,86.666c.115,2.606.182,5.22.182,7.849,0,3.669-.126,7.31-.349,10.923a9.072,9.072,0,0,1-1,.052l-17,0a9.446,9.446,0,1,1,0-18.891h17A9.39,9.39,0,0,1,382.781,199.68Zm-19.394,88.447a175.486,175.486,0,0,1-9.594,16.293l-.242-.135-14.714-8.5a9.46,9.46,0,1,1,9.483-16.372l14.714,8.5ZM61.258,304.4a175.28,175.28,0,0,1-9.578-16.262l.38-.229,14.719-8.5a9.441,9.441,0,0,1,9.408,16.372l-14.719,8.5-.211.119ZM32.444,218.452c-.222-3.613-.349-7.254-.349-10.923,0-2.629.067-5.243.182-7.845a9.346,9.346,0,0,1,1.163-.071h17a9.448,9.448,0,0,1,0,18.9l-17,0A8.95,8.95,0,0,1,32.444,218.452Zm18.105-89.3a174.912,174.912,0,0,1,9.158-16.127,9.531,9.531,0,0,1,1.8.805l14.719,8.5A9.462,9.462,0,0,1,66.744,138.7l-14.718-8.5a9.9,9.9,0,0,1-1.476-1.051ZM207.533,20.4c103.348,0,187.127,83.783,187.127,187.131S310.881,394.66,207.533,394.66,20.4,310.881,20.4,207.529,104.181,20.4,207.533,20.4Z" transform="translate(43.157 42.757)" fill-rule="evenodd"/>
  </g>
</svg>
