<svg xmlns="http://www.w3.org/2000/svg" width="85.086" height="63.657" viewBox="0 0 85.086 63.657">
  <g id="Group_1888" data-name="Group 1888" transform="translate(-9662 4525)">
    <g id="furniture-store" transform="translate(9662 -4525)">
      <path id="Path_449" data-name="Path 449" d="M6.928-487.657a1.052,1.052,0,0,0-.343.768,3.472,3.472,0,0,1-3.279,3.279,1.052,1.052,0,0,0-.768.343l-.343.329v8.355l-.412.165a3.744,3.744,0,0,0-1.619,1.893A21.593,21.593,0,0,0,0-468.862v3.114l.466.782a11.087,11.087,0,0,0,1.1,1.44l.631.672v36.314H1.441c-.919,0-1.441.4-1.441,1.1a1.069,1.069,0,0,0,.343.755l.329.343h68.9l.329-.343a1.008,1.008,0,0,0,0-1.509c-.274-.288-.466-.343-1.1-.343h-.755v-36.314l.631-.672a11.086,11.086,0,0,0,1.1-1.44l.466-.782v-3.114a21.594,21.594,0,0,0-.165-3.663,3.744,3.744,0,0,0-1.619-1.893l-.412-.165v-8.355l-.343-.329a1.052,1.052,0,0,0-.768-.343,3.472,3.472,0,0,1-3.279-3.279,1.052,1.052,0,0,0-.343-.768L62.984-488H7.257ZM61.6-485.64a7.118,7.118,0,0,0,1.386,2.5,7.081,7.081,0,0,0,2.675,1.591c.165,0,.192.617.192,3.361v3.361H4.39v-3.361c0-2.593.041-3.361.178-3.361a7.2,7.2,0,0,0,2.483-1.386,7.08,7.08,0,0,0,1.591-2.675c0-.165,4.2-.192,26.478-.192C56.207-485.8,61.6-485.764,61.6-485.64Zm6.1,13.349c.343.329.343.343.343,3.155v2.826l-.4.59a3.816,3.816,0,0,1-2.758,1.866c-.974,0-2.085-.809-2.977-2.2s-1.66-1.386-2.552,0-2,2.2-2.977,2.2-2.085-.809-2.977-2.2a2.373,2.373,0,0,0-.892-.947c-.631-.219-1.084.041-1.66.947-1.88,2.895-4.075,2.895-5.954,0-.892-1.386-1.66-1.386-2.552,0s-2,2.2-2.977,2.2-2.085-.809-2.977-2.2c-.576-.905-1.029-1.166-1.646-.947a2.294,2.294,0,0,0-.905.947c-.892,1.386-2,2.2-2.977,2.2s-2.085-.809-2.977-2.2c-.576-.905-1.029-1.166-1.646-.947a2.294,2.294,0,0,0-.905.947c-1.88,2.895-4.075,2.895-5.954,0-.892-1.386-1.66-1.386-2.552,0-1.88,2.895-4.075,2.895-5.954,0A2.373,2.373,0,0,0,9.988-467c-.631-.219-1.084.041-1.66.947-.892,1.386-2,2.2-2.977,2.2a3.816,3.816,0,0,1-2.758-1.866l-.4-.59v-2.826c0-2.812,0-2.826.343-3.155l.329-.343H67.375Zm-57.538,8.917A6.711,6.711,0,0,0,12.91-461.8c.247,0,.261.151.261,2.264v2.264H4.39v-4.486l.727.069a5.453,5.453,0,0,0,4.02-1.811,6.206,6.206,0,0,1,.425-.48A4.217,4.217,0,0,1,10.166-463.374Zm8.382-.123a5.271,5.271,0,0,0,4.184,1.784,4.2,4.2,0,0,0,1.139-.22c.274-.151.274-.11.274,2.264v2.4h-8.78v-4.664l.686-.343a6.3,6.3,0,0,0,1.344-1.015c.357-.357.659-.672.686-.672A2.505,2.505,0,0,1,18.548-463.5Zm8.767.233a5.533,5.533,0,0,0,2.826,1.509,4.976,4.976,0,0,0,4.267-1.482l.713-.7.727.7a4.937,4.937,0,0,0,4.253,1.482,5.657,5.657,0,0,0,2.812-1.482l.713-.7.727.7a4.937,4.937,0,0,0,4.253,1.482,5.533,5.533,0,0,0,2.826-1.509l.741-.713.288.37a4.464,4.464,0,0,0,1.866,1.454,3.631,3.631,0,0,0,2.058.425,3.631,3.631,0,0,0,2.058-.425,4.725,4.725,0,0,0,1.893-1.5l.288-.37.439.508a5.519,5.519,0,0,0,4.075,1.825l.713-.069v20.949H60.364v-6.585h1.852c1.8,0,1.88-.014,2.2-.343a1.109,1.109,0,0,0,.343-.645c0-.178-.521-1.893-1.166-3.814a16.993,16.993,0,0,0-1.454-3.745c-.261-.206-.617-.233-2.867-.233s-2.607.027-2.867.233a16.993,16.993,0,0,0-1.454,3.745c-.645,1.921-1.166,3.636-1.166,3.814a1.109,1.109,0,0,0,.343.645c.316.329.4.343,2.2.343h1.852v6.585H56.523c-1.427,0-1.646-.027-1.646-.219a3.607,3.607,0,0,0-1.783-2.661l-.412-.165v-1.482a17.236,17.236,0,0,0-.137-2.209,6.768,6.768,0,0,0-4.87-5.131,52.211,52.211,0,0,0-9.713,0,6.713,6.713,0,0,0-4.829,4.8,11.635,11.635,0,0,0-.206,2.415v1.605l-.412.165a3.744,3.744,0,0,0-1.619,1.893,44.417,44.417,0,0,0-.165,5.707v5.158h-4.39v-16.435c0-13.966.027-16.628.206-16.628C26.546-463.992,26.9-463.662,27.315-463.264ZM13.17-443v12.073H4.39v-24.146h8.78Zm10.975,0v12.073h-8.78v-24.146h8.78Zm37.261-8.753.713,2.168H56.4l.686-2.03c.37-1.111.7-2.1.741-2.2.041-.123.425-.165,1.454-.137l1.4.041ZM47.88-450.3a4.182,4.182,0,0,1,2.058,1.976c.453.837.466.933.521,2.661l.055,1.8-.425.178a3.768,3.768,0,0,0-1.633,1.893,8.377,8.377,0,0,0-.165,1.838v1.29l-.988-.48-.988-.494H39.292l-.988.494-.988.48v-1.29a8.378,8.378,0,0,0-.165-1.838,3.768,3.768,0,0,0-1.633-1.893l-.425-.178.055-1.8a5.476,5.476,0,0,1,.384-2.483,4.63,4.63,0,0,1,2.95-2.415c.233-.055,2.291-.1,4.6-.082C47.125-450.615,47.29-450.6,47.88-450.3Zm-13.1,8.739.343.329v10.3h-2.2v-10.3l.343-.329a1.07,1.07,0,0,1,.755-.343A1.069,1.069,0,0,1,34.778-441.561Zm17.56,0,.343.329v10.3h-2.2v-10.3l.343-.329a1.07,1.07,0,0,1,.755-.343A1.07,1.07,0,0,1,52.338-441.561Zm13.513,6.791v3.841H54.876v-7.683H65.852Zm-19.879-2.579c.823.233,2.044,1.413,2.044,1.962,0,.041-2.346.069-5.213.069s-5.213-.041-5.213-.11c0-.48,1.166-1.619,1.948-1.907A31.5,31.5,0,0,1,45.973-437.349Zm2.319,5.323v1.1H37.316v-2.2H48.291Zm17.56,4.39v1.1H4.39v-2.2H65.852Z" transform="translate(0 488)"/>
      <path id="Path_450" data-name="Path 450" d="M152.343-455.657c-.343.329-.343.357-.343,2.95s0,2.62.343,2.95l.329.343h27.191l.329-.343c.343-.329.343-.357.343-2.95s0-2.62-.343-2.95l-.329-.343H152.672Zm26,2.95v1.1H154.2v-2.2h24.146Z" transform="translate(-131.147 460.39)"/>
      <path id="Path_451" data-name="Path 451" d="M64.343-183.657c-.329.316-.343.384-.343,2.4s.014,2.085.343,2.4a1.069,1.069,0,0,0,.755.343,1.069,1.069,0,0,0,.755-.343c.329-.316.343-.384.343-2.4s-.014-2.085-.343-2.4A1.069,1.069,0,0,0,65.1-184,1.07,1.07,0,0,0,64.343-183.657Z" transform="translate(-55.22 225.706)"/>
      <path id="Path_452" data-name="Path 452" d="M128.343-183.657c-.329.316-.343.384-.343,2.4s.014,2.085.343,2.4a1.069,1.069,0,0,0,.755.343,1.07,1.07,0,0,0,.755-.343c.329-.316.343-.384.343-2.4s-.014-2.085-.343-2.4A1.07,1.07,0,0,0,129.1-184,1.069,1.069,0,0,0,128.343-183.657Z" transform="translate(-110.44 225.706)"/>
    </g>
    <g id="location-sign-svgrepo-com" transform="translate(9732.928 -4481.743)">
      <path id="Path_453" data-name="Path 453" d="M67.61,0a7.088,7.088,0,0,0-7.079,7.08c0,3.758,6.423,12.536,6.7,12.908l.255.347a.159.159,0,0,0,.256,0l.255-.347c.274-.372,6.7-9.151,6.7-12.908A7.088,7.088,0,0,0,67.61,0Zm0,4.544A2.536,2.536,0,1,1,65.074,7.08,2.538,2.538,0,0,1,67.61,4.544Z" transform="translate(-60.531)"/>
    </g>
    <rect id="Rectangle_337" data-name="Rectangle 337" width="16.752" height="2.234" rx="1.117" transform="translate(9729.666 -4463.576)"/>
  </g>
</svg>
